<?xml version="1.0" standalone="no"?>
<!DOCTYPE svg PUBLIC "-//W3C//DTD SVG 20010904//EN"
 "http://www.w3.org/TR/2001/REC-SVG-20010904/DTD/svg10.dtd">
<svg version="1.0" xmlns="http://www.w3.org/2000/svg"
 width="700.000000pt" height="700.000000pt" viewBox="0 0 700.000000 700.000000"
 preserveAspectRatio="xMidYMid meet">
<metadata>
Created by potrace 1.14, written by Peter Selinger 2001-2017
</metadata>
<g transform="translate(0.000000,700.000000) scale(0.100000,-0.100000)"
fill="#000000" stroke="none">
<path d="M3535 6985 c18 -14 132 -84 205 -126 14 -8 27 -16 30 -19 3 -3 25
-18 50 -34 41 -26 250 -180 293 -216 177 -145 375 -342 519 -515 138 -166 127
-151 230 -300 209 -303 374 -634 493 -990 33 -99 105 -366 119 -441 16 -82 36
-205 41 -249 4 -27 8 -57 10 -65 2 -8 7 -51 10 -95 4 -44 9 -96 11 -115 11
-90 4 -363 -11 -436 -3 -12 -7 -39 -10 -60 -32 -207 -138 -482 -267 -684 -49
-79 -127 -180 -136 -180 -4 1 -54 46 -112 101 -105 100 -269 255 -366 346 -28
26 -115 109 -194 183 -178 168 -188 177 -350 330 -73 69 -150 141 -170 160
-93 88 -299 282 -336 316 -73 69 -306 288 -344 324 -20 19 -101 96 -180 170
-78 74 -156 148 -173 163 l-31 28 547 546 c300 301 545 548 543 550 -5 5 -33
10 -97 18 -56 7 -72 9 -149 20 -25 4 -56 8 -70 10 -14 2 -43 6 -65 9 -22 4
-58 9 -80 11 -22 3 -101 14 -175 25 -74 11 -151 22 -170 24 -19 3 -57 7 -85
11 -27 4 -63 9 -80 11 -64 10 -82 13 -130 19 -70 9 -113 15 -160 22 -44 7 -41
6 -173 24 l-94 12 -60 -59 c-99 -97 -599 -592 -1157 -1146 l-524 -520 144
-144 c477 -479 720 -719 728 -719 5 0 189 178 409 395 220 217 405 396 410
398 4 1 53 -45 108 -104 111 -118 103 -110 344 -363 96 -101 193 -202 214
-225 22 -22 125 -130 230 -239 105 -109 226 -235 269 -280 94 -98 491 -507
738 -761 152 -155 175 -182 160 -192 -33 -23 -228 -92 -336 -120 -34 -8 -34
-8 -152 -30 -104 -19 -416 -27 -513 -13 -36 6 -81 12 -100 14 -19 2 -66 11
-105 20 -38 9 -77 18 -85 20 -19 5 -154 50 -200 67 -75 28 -253 121 -342 180
-114 75 -215 157 -302 244 l-65 67 -45 -37 c-24 -20 -68 -56 -97 -81 -28 -24
-56 -42 -60 -39 -4 2 -27 7 -51 10 -24 3 -45 7 -48 7 -3 1 -25 -2 -48 -6 -51
-9 -105 -35 -145 -71 -16 -14 -43 -28 -60 -32 -107 -23 -195 -102 -260 -232
-92 -186 -210 -327 -377 -451 -81 -60 -219 -135 -314 -170 -161 -60 -287 -142
-421 -276 -146 -145 -235 -287 -286 -454 -23 -77 -26 -134 -19 -329 3 -82 7
-99 32 -138 45 -71 78 -81 255 -78 164 3 209 11 322 54 186 72 377 220 502
390 52 71 100 160 138 257 22 55 52 126 66 158 110 240 323 455 570 575 87 42
155 106 195 182 18 35 34 65 36 67 2 2 25 -20 51 -49 283 -311 648 -551 1044
-686 84 -28 181 -57 239 -69 103 -23 164 -34 210 -40 30 -4 57 -8 60 -10 9 -6
232 -18 315 -18 83 0 286 12 295 18 3 1 34 6 69 9 35 3 66 8 70 10 3 2 24 7
46 10 173 28 440 118 633 214 l93 47 56 -60 c31 -33 132 -139 224 -235 91 -96
190 -200 218 -230 496 -524 503 -530 622 -570 261 -88 545 64 614 329 33 129
7 287 -65 388 -35 49 -70 83 -401 393 -73 69 -147 138 -164 153 -16 16 -73 69
-125 117 -102 95 -174 163 -257 242 -31 29 -50 55 -46 62 4 6 28 40 53 76 292
407 466 970 463 1500 0 89 -10 267 -18 335 -8 65 -16 131 -20 160 -17 134 -73
390 -117 535 -191 631 -512 1164 -978 1630 -123 122 -274 258 -334 300 -12 8
-29 22 -40 32 -10 9 -69 53 -130 97 -335 240 -726 438 -1111 561 -71 23 -141
46 -155 51 -24 9 -24 8 -5 -6z"/>
</g>
</svg>
